<svg width="28" height="29" viewBox="0 0 28 29" fill="none" xmlns="http://www.w3.org/2000/svg">
<path d="M8.625 28.25C7.86875 28.25 7.22112 27.9805 6.68212 27.4415C6.14312 26.9025 5.87408 26.2553 5.875 25.5C5.875 24.7437 6.1445 24.0961 6.6835 23.5571C7.2225 23.0181 7.86967 22.7491 8.625 22.75C9.38125 22.75 10.0289 23.0195 10.5679 23.5585C11.1069 24.0975 11.3759 24.7447 11.375 25.5C11.375 26.2563 11.1055 26.9039 10.5665 27.4429C10.0275 27.9819 9.38033 28.2509 8.625 28.25ZM22.375 28.25C21.6187 28.25 20.9711 27.9805 20.4321 27.4415C19.8931 26.9025 19.6241 26.2553 19.625 25.5C19.625 24.7437 19.8945 24.0961 20.4335 23.5571C20.9725 23.0181 21.6197 22.7491 22.375 22.75C23.1312 22.75 23.7789 23.0195 24.3179 23.5585C24.8569 24.0975 25.1259 24.7447 25.125 25.5C25.125 26.2563 24.8555 26.9039 24.3165 27.4429C23.7775 27.9819 23.1303 28.2509 22.375 28.25ZM6.15 3.5H26.4312C26.9583 3.5 27.3594 3.73513 27.6344 4.20538C27.9094 4.67563 27.9208 5.15092 27.6687 5.63125L22.7875 14.4312C22.5354 14.8896 22.1972 15.2448 21.7727 15.4969C21.3483 15.749 20.8845 15.875 20.3812 15.875H10.1375L8.625 18.625H25.125V21.375H8.625C7.59375 21.375 6.81458 20.9222 6.2875 20.0165C5.76042 19.1108 5.7375 18.2116 6.21875 17.3188L8.075 13.95L3.125 3.5H0.375V0.75H4.84375L6.15 3.5Z" fill="white"/>
</svg>
