<svg width="24" height="24" viewBox="0 0 24 24" fill="none" xmlns="http://www.w3.org/2000/svg">
<path d="M15.7629 23.25C16.0712 23.25 16.3669 23.1315 16.5849 22.9205C16.8029 22.7095 16.9254 22.4234 16.9254 22.125C16.9254 21.8266 16.8029 21.5405 16.5849 21.3295C16.3669 21.1185 16.0712 21 15.7629 21H6.07539C5.25322 21 4.46472 20.6839 3.88336 20.1213C3.302 19.5587 2.97539 18.7956 2.97539 18V6C2.97539 5.20435 3.302 4.44129 3.88336 3.87868C4.46472 3.31607 5.25322 3 6.07539 3H15.7629C16.0712 3 16.3669 2.88147 16.5849 2.6705C16.8029 2.45952 16.9254 2.17337 16.9254 1.875C16.9254 1.57663 16.8029 1.29048 16.5849 1.0795C16.3669 0.868526 16.0712 0.75 15.7629 0.75H6.07539C4.63659 0.75 3.25672 1.30312 2.23934 2.28769C1.22195 3.27226 0.650391 4.60761 0.650391 6V18C0.650391 19.3924 1.22195 20.7277 2.23934 21.7123C3.25672 22.6969 4.63659 23.25 6.07539 23.25H15.7629ZM17.2989 6.2985C17.4111 6.19821 17.5425 6.12029 17.6858 6.06918C17.8291 6.01807 17.9814 5.99477 18.1339 6.00063C18.2865 6.00648 18.4364 6.04136 18.575 6.10328C18.7137 6.1652 18.8383 6.25294 18.9419 6.3615L23.5919 11.2365C23.7904 11.4444 23.9006 11.717 23.9006 12C23.9006 12.283 23.7904 12.5556 23.5919 12.7635L18.9419 17.6385C18.7325 17.8575 18.4417 17.987 18.1336 17.9985C17.8255 18.0101 17.5252 17.9027 17.2989 17.7C17.0726 17.4973 16.9388 17.2159 16.9269 16.9177C16.915 16.6196 17.0259 16.329 17.2354 16.11L20.0843 13.1235H8.01289C7.70458 13.1235 7.40889 13.005 7.19088 12.794C6.97287 12.583 6.85039 12.2969 6.85039 11.9985C6.85039 11.7001 6.97287 11.414 7.19088 11.203C7.40889 10.992 7.70458 10.8735 8.01289 10.8735H20.0827L17.2338 7.887C17.1302 7.77847 17.0497 7.65125 16.9969 7.51261C16.9441 7.37396 16.92 7.2266 16.926 7.07895C16.9321 6.9313 16.9681 6.78624 17.0321 6.65208C17.0961 6.51791 17.1868 6.39875 17.2989 6.2985Z" fill="#393745"/>
</svg>
