<svg width="24" height="34" viewBox="0 0 24 34" fill="none" xmlns="http://www.w3.org/2000/svg">
<path d="M11.9997 0.333496C5.54967 0.333496 0.333008 5.55016 0.333008 12.0002C0.333008 20.7502 11.9997 33.6668 11.9997 33.6668C11.9997 33.6668 23.6663 20.7502 23.6663 12.0002C23.6663 5.55016 18.4497 0.333496 11.9997 0.333496ZM11.9997 16.1668C10.8946 16.1668 9.8348 15.7278 9.0534 14.9464C8.272 14.165 7.83301 13.1052 7.83301 12.0002C7.83301 10.8951 8.272 9.83529 9.0534 9.05388C9.8348 8.27248 10.8946 7.8335 11.9997 7.8335C13.1047 7.8335 14.1646 8.27248 14.946 9.05388C15.7274 9.83529 16.1663 10.8951 16.1663 12.0002C16.1663 13.1052 15.7274 14.165 14.946 14.9464C14.1646 15.7278 13.1047 16.1668 11.9997 16.1668Z" fill="white"/>
</svg>
