<svg width="16" height="16" viewBox="0 0 16 16" fill="none" xmlns="http://www.w3.org/2000/svg">
<path d="M14.1465 15.6997L11.23 12.7782C10.6848 13.215 10.0579 13.5609 9.34923 13.8157C8.64054 14.0705 7.88643 14.198 7.08688 14.198C5.10619 14.198 3.43005 13.5106 2.05847 12.136C0.686882 10.7613 0.00072686 9.08232 0 7.09898C0 5.1149 0.686156 3.4359 2.05847 2.06198C3.43078 0.688055 5.10692 0.0007281 7.08688 0C9.06757 0 10.7437 0.687326 12.1153 2.06198C13.4869 3.43663 14.173 5.11563 14.1738 7.09898C14.1738 7.89989 14.0466 8.65529 13.7922 9.36519C13.5378 10.0751 13.1925 10.7031 12.7564 11.2491L15.7002 14.198C15.9001 14.3982 16 14.6439 16 14.9352C16 15.2264 15.891 15.4812 15.6729 15.6997C15.473 15.8999 15.2186 16 14.9097 16C14.6008 16 14.3464 15.8999 14.1465 15.6997ZM7.08688 12.0137C8.44974 12.0137 9.60836 11.5357 10.5627 10.5797C11.5171 9.62366 11.9939 8.46344 11.9932 7.09898C11.9932 5.73379 11.516 4.5732 10.5616 3.6172C9.60727 2.66121 8.44902 2.18357 7.08688 2.1843C5.72402 2.1843 4.56541 2.6623 3.61104 3.61829C2.65667 4.57429 2.17985 5.73452 2.18058 7.09898C2.18058 8.46416 2.65776 9.62475 3.61213 10.5808C4.5665 11.5367 5.72475 12.0144 7.08688 12.0137Z" fill="white"/>
</svg>
