<svg width="163" height="79" viewBox="0 0 163 79" fill="none" xmlns="http://www.w3.org/2000/svg">
<g clip-path="url(#clip0_17_544)">
<path d="M55.5552 19.6523H61.6681C62.6925 19.6523 63.5638 19.7063 64.2822 19.8141C65.0006 19.9219 65.6591 20.1241 66.2578 20.4139C66.8564 20.7037 67.3353 21.1081 67.6945 21.6203C68.0537 22.1325 68.3265 22.7862 68.5194 23.5747C68.7123 24.3632 68.812 25.327 68.812 26.4525V28.0497C68.812 29.4313 68.6723 30.5703 68.393 31.4599C68.1136 32.3562 67.6546 33.0437 67.0227 33.5289C66.3908 34.0141 65.6591 34.3579 64.8277 34.5466C63.9962 34.7353 62.9452 34.8296 61.6681 34.8296H60.0916V44.002H55.5552V19.6523ZM64.2756 28.2182V26.3783C64.2756 25.2259 64.1226 24.4508 63.8166 24.06C63.5106 23.6691 62.8188 23.4736 61.7479 23.4736H60.0983V31.0555H61.7878C62.8654 31.0555 63.5439 30.8736 63.8432 30.5164C64.1359 30.1524 64.2822 29.3909 64.2822 28.2249L64.2756 28.2182Z" fill="white"/>
<path d="M81.1644 36.9185H73.8342V38.2462C73.8342 39.1426 73.9539 39.7828 74.2 40.167C74.4461 40.5444 74.8985 40.7398 75.557 40.7398C76.1689 40.7398 76.5614 40.6118 76.741 40.3624C76.9139 40.1063 77.0337 39.52 77.1002 38.5967L81.018 39.183C80.9183 39.9041 80.8118 40.4972 80.6921 40.969C80.5724 41.4407 80.3928 41.8855 80.16 42.3168C79.9205 42.7482 79.6145 43.0851 79.2287 43.321C78.8496 43.5636 78.364 43.7524 77.7787 43.9006C77.1933 44.0489 76.4816 44.1298 75.6435 44.1567C73.5681 44.1567 72.0515 43.6782 71.1003 42.7145C70.1425 41.7507 69.6636 40.2748 69.6636 38.2866V32.457C69.6636 30.3071 70.1225 28.7638 71.0405 27.8405C71.9584 26.9172 73.495 26.4521 75.6435 26.4521C77.6589 26.4521 79.0824 26.9239 79.9205 27.8674C80.7586 28.811 81.1777 30.3273 81.1777 32.4166V36.9185H81.1644ZM73.8342 32.4907V33.4949H77.0603V32.4503C77.0603 31.5 76.9671 30.8665 76.7809 30.5497C76.5946 30.233 76.1623 30.078 75.4905 30.078C74.8186 30.078 74.3863 30.2465 74.1668 30.5834C73.9473 30.9204 73.8408 31.5539 73.8408 32.4907H73.8342Z" fill="white"/>
<path d="M93.7096 31.3855V44.0018H89.5257V42.6741C89.1532 43.22 88.7275 43.6042 88.2618 43.8266C87.7962 44.049 87.1178 44.1568 86.2264 44.1568C84.7165 44.1568 83.6788 43.7659 83.1134 42.9909C82.548 42.2091 82.2687 40.868 82.2687 38.954C82.2953 37.788 82.3884 36.858 82.548 36.1638C82.7077 35.4696 83.0469 34.8227 83.5591 34.2228C84.0713 33.6298 84.7963 33.1513 85.7342 32.7873C86.6721 32.4234 87.9359 32.0932 89.519 31.7899V31.7158C89.519 31.0957 89.4126 30.6712 89.1997 30.4353C88.9869 30.1994 88.5811 30.0848 87.9825 30.0848C87.457 30.0848 87.0778 30.1792 86.845 30.3611C86.6122 30.5431 86.4326 30.9003 86.2929 31.4327L82.1489 30.0107C82.5746 28.8043 83.2598 27.9147 84.211 27.3351C85.1621 26.7555 86.5524 26.459 88.3949 26.459C89.8449 26.459 90.9558 26.6275 91.7207 26.9712C92.4923 27.3149 93.0112 27.8204 93.2839 28.501C93.5566 29.175 93.6963 30.1455 93.6963 31.399L93.7096 31.3855ZM89.5257 38.28V35.2001C89.0002 35.3483 88.6011 35.4696 88.3284 35.564C88.0556 35.6516 87.7896 35.7729 87.5302 35.9279C87.2707 36.0829 87.0978 36.211 87.0047 36.3188C86.9115 36.4267 86.8251 36.6154 86.7453 36.8782C86.6654 37.1478 86.6189 37.3971 86.6056 37.6263C86.5923 37.8622 86.579 38.2193 86.5657 38.6979C86.5657 39.5201 86.6521 40.0727 86.8184 40.349C86.9847 40.6253 87.3373 40.7669 87.876 40.7669C88.5412 40.7669 88.9802 40.5849 89.1997 40.2277C89.4192 39.8638 89.5257 39.2168 89.5257 38.28Z" fill="white"/>
<path d="M101.917 44.0018L100.308 36.7637L99.5028 38.3946V44.0018H95.2856V19.0591H99.5028V31.426L102.13 26.7353H106.234L103.387 31.8236L106.314 44.0018H101.924H101.917Z" fill="white"/>
<path d="M106.886 36.8376L111.483 36.2513C111.536 37.4442 111.629 38.3001 111.775 38.8123C111.922 39.3312 112.148 39.6817 112.46 39.8636C112.773 40.0456 113.279 40.14 113.977 40.14C114.802 40.14 115.38 39.9513 115.713 39.5806C116.046 39.2099 116.212 38.6438 116.212 37.8822C116.212 37.3498 116.086 36.8781 115.839 36.4602C115.567 35.9952 115.214 35.5773 114.788 35.2067C114.536 34.991 113.684 34.2834 112.221 33.077C111.256 32.3154 110.518 31.6954 109.993 31.2169C109.467 30.7384 108.982 30.1992 108.529 29.5994C108.077 29.0064 107.758 28.3998 107.571 27.7865C107.385 27.1732 107.272 26.4521 107.232 25.6299C107.232 23.5676 107.791 22.0175 108.908 20.9931C110.026 19.9687 111.642 19.4565 113.757 19.4565C116.072 19.4565 117.715 19.935 118.7 20.8988C119.684 21.8625 120.289 23.4733 120.529 25.7445L115.992 26.1825C115.933 25.1716 115.753 24.4707 115.46 24.0798C115.168 23.6957 114.635 23.5002 113.877 23.5002C112.48 23.5002 111.775 24.1607 111.775 25.4749C111.775 26.1084 111.988 26.6812 112.414 27.1867C112.853 27.7191 113.777 28.5346 115.188 29.6399C116.598 30.7654 117.675 31.7022 118.414 32.4502C120.003 33.9329 120.795 35.7458 120.795 37.8822C120.795 40.0186 120.236 41.5418 119.125 42.5864C118.015 43.631 116.252 44.1567 113.837 44.1567C112.514 44.1567 111.403 44.0017 110.498 43.6782C109.6 43.3614 108.895 42.8694 108.39 42.209C107.884 41.5418 107.518 40.7869 107.292 39.9378C107.066 39.0886 106.933 38.0575 106.9 36.8444L106.886 36.8376Z" fill="white"/>
<path d="M129.289 30.6107H127.154V38.7991C127.154 39.3922 127.234 39.7763 127.387 39.9381C127.54 40.1066 127.899 40.1874 128.444 40.1874H129.289V44.0087H127.227C125.677 44.0087 124.566 43.6987 123.888 43.0652C123.216 42.4384 122.877 41.3803 122.877 39.8842V30.6174H121.074V26.7422H122.877V21.5933H127.154V26.7422H129.289V30.6174V30.6107Z" fill="white"/>
<path d="M130.42 38.2866V32.457C130.42 30.3678 130.873 28.8447 131.777 27.8877C132.682 26.9307 134.198 26.4521 136.32 26.4521C138.442 26.4521 140.012 26.9172 140.903 27.8472C141.795 28.7773 142.247 30.2734 142.247 32.3424V38.2125C142.247 40.1872 141.768 41.6699 140.804 42.6673C139.839 43.6647 138.349 44.1567 136.32 44.1567C134.292 44.1567 132.808 43.6715 131.85 42.6943C130.892 41.717 130.414 40.2478 130.414 38.2866H130.42ZM137.937 38.2125V32.457C137.937 31.5944 137.824 31.0148 137.597 30.7182C137.371 30.4217 136.946 30.2734 136.32 30.2734C135.695 30.2734 135.303 30.4352 135.063 30.7519C134.824 31.0687 134.704 31.6483 134.704 32.4974V38.2125C134.704 39.0482 134.83 39.6278 135.076 39.9513C135.329 40.2748 135.742 40.4365 136.314 40.4365C136.886 40.4365 137.298 40.2748 137.551 39.9513C137.804 39.6278 137.923 39.0482 137.923 38.2125H137.937Z" fill="white"/>
<path d="M143.69 26.7354H147.981V28.1237C148.779 27.2341 149.73 26.7758 150.828 26.7354V30.6105C149.664 30.6847 148.899 30.8869 148.533 31.2171C148.167 31.5473 147.981 32.2685 147.981 33.3805V44.0019H143.69V26.7354Z" fill="white"/>
<path d="M163 36.9185H155.67V38.2462C155.67 39.1426 155.79 39.7828 156.036 40.167C156.282 40.5444 156.734 40.7398 157.393 40.7398C158.005 40.7398 158.397 40.6118 158.577 40.3624C158.75 40.1063 158.87 39.52 158.936 38.5967L162.854 39.183C162.754 39.9041 162.648 40.4972 162.528 40.969C162.408 41.4407 162.229 41.8855 161.996 42.3168C161.756 42.7482 161.45 43.0851 161.065 43.321C160.686 43.5636 160.2 43.7524 159.615 43.9006C159.029 44.0489 158.318 44.1298 157.479 44.1567C155.404 44.1567 153.887 43.6782 152.936 42.7145C151.978 41.7507 151.5 40.2748 151.5 38.2866V32.457C151.5 30.3071 151.958 28.7638 152.876 27.8405C153.794 26.9172 155.331 26.4521 157.479 26.4521C159.495 26.4521 160.918 26.9239 161.756 27.8674C162.595 28.811 163.014 30.3273 163.014 32.4166V36.9185H163ZM155.67 32.4907V33.4949H158.896V32.4503C158.896 31.5 158.803 30.8665 158.617 30.5497C158.431 30.233 157.998 30.078 157.326 30.078C156.655 30.078 156.222 30.2465 156.003 30.5834C155.783 30.9204 155.677 31.5539 155.677 32.4907H155.67Z" fill="white"/>
<path d="M59.4529 58.7682H58.6414L55.7479 55.5265V58.7682H55.1626V52.5679H55.7479V55.203L58.5417 52.5679H59.3465L56.3998 55.3513L59.4596 58.7682H59.4529Z" fill="white"/>
<path d="M60.4639 54.4818H63.2709V58.7681H62.7055V55.0345H61.0093L60.843 57.7303C60.8231 58.1144 60.7366 58.384 60.5903 58.539C60.4439 58.694 60.2244 58.7681 59.9384 58.7681H59.7588V58.2088H59.8253C59.985 58.2088 60.098 58.1683 60.1645 58.0942C60.2311 58.0201 60.271 57.8718 60.2843 57.6561L60.4705 54.4751L60.4639 54.4818Z" fill="white"/>
<path d="M69.1577 56.47V56.7261C69.1577 57.3866 69.018 57.892 68.7319 58.2559C68.4459 58.6199 68.0269 58.8018 67.4548 58.8018C66.8828 58.8018 66.4637 58.6199 66.1777 58.2559C65.8917 57.892 65.752 57.3866 65.752 56.7396V56.652H65.0669V58.7614H64.5015V54.4751H65.0669V56.1195H65.7653C65.8518 54.9806 66.4105 54.4077 67.4482 54.4077C68.0402 54.4077 68.4725 54.5829 68.7386 54.9334C69.0113 55.2838 69.1444 55.796 69.1444 56.47H69.1577ZM68.579 56.7261V56.4767C68.579 55.9578 68.4925 55.5736 68.3262 55.331C68.1599 55.0884 67.8672 54.9604 67.4548 54.9604C67.0424 54.9604 66.7564 55.0884 66.5834 55.3378C66.4105 55.5871 66.3307 55.9713 66.3307 56.4835V56.7194C66.3307 57.7437 66.7032 58.2559 67.4548 58.2559C67.8473 58.2559 68.1333 58.1212 68.3062 57.8651C68.4792 57.609 68.5723 57.2181 68.5723 56.7194L68.579 56.7261Z" fill="white"/>
<path d="M72.4771 54.4819H73.0425V58.7682H72.4771V56.861C72.1844 56.989 71.8119 57.0564 71.3796 57.0699C70.8874 57.0699 70.5282 56.9553 70.3087 56.7329C70.0892 56.5105 69.9761 56.1735 69.9761 55.722V54.4819H70.5415V55.7018C70.5415 55.9983 70.6146 56.2072 70.7543 56.3353C70.894 56.4633 71.1401 56.524 71.486 56.524C71.8319 56.524 72.1711 56.4566 72.4638 56.3286V54.4887L72.4771 54.4819Z" fill="white"/>
<path d="M76.9139 54.4819H77.4527V58.7682H76.8873V55.4794L74.8186 58.7682H74.2798V54.4819H74.8452V57.7506L76.9139 54.4819Z" fill="white"/>
<path d="M80.2794 56.7463V56.4969C80.2794 55.1019 80.8448 54.4077 81.9756 54.4077C82.5676 54.4077 83 54.5829 83.266 54.9334C83.5388 55.2838 83.6718 55.796 83.6718 56.47V56.7261C83.6718 57.3866 83.5321 57.892 83.2461 58.2559C82.9601 58.6199 82.541 58.8018 81.969 58.8018C81.3969 58.8018 80.9778 58.6199 80.6918 58.2559C80.4058 57.892 80.2661 57.3866 80.2661 56.7396L80.2794 56.7463ZM83.1064 56.7261V56.4767C83.1064 55.9578 83.0199 55.5736 82.8536 55.331C82.6873 55.0884 82.3947 54.9604 81.9823 54.9604C81.5698 54.9604 81.2838 55.0884 81.1109 55.3378C80.9446 55.5871 80.8581 55.9713 80.8581 56.4835V56.7194C80.8581 57.7437 81.2306 58.2559 81.9823 58.2559C82.7339 58.2559 83.1064 57.7437 83.1064 56.7194V56.7261Z" fill="white"/>
<path d="M84.1572 55.0345V54.4751H87.4099V55.0345H86.0796V58.7681H85.4942V55.0345H84.1572Z" fill="white"/>
<path d="M92.678 54.4819H93.2168V58.7682H92.6514V55.4794L90.5827 58.7682H90.0439V54.4819H90.6093V57.7506L92.678 54.4819Z" fill="white"/>
<path d="M96.8089 54.4819V55.0278H95.0063V58.7682H94.4409V54.4819H96.8089Z" fill="white"/>
<path d="M100.98 56.4701V56.7262C100.98 57.4069 100.86 57.9258 100.614 58.2763C100.368 58.6267 99.9754 58.8087 99.4233 58.8087C98.8712 58.8087 98.4322 58.6402 98.1528 58.3032V60.534H97.5874V54.4819H98.1528V54.9874C98.4322 54.6033 98.8579 54.4146 99.4299 54.4146C99.7359 54.4146 99.9887 54.4617 100.195 54.5493C100.401 54.637 100.554 54.7717 100.667 54.9605C100.78 55.1424 100.86 55.3581 100.907 55.594C100.953 55.8366 100.973 56.1264 100.973 56.4768L100.98 56.4701ZM100.401 56.7262V56.4768C100.401 56.2409 100.388 56.0522 100.374 55.904C100.361 55.7557 100.335 55.6209 100.295 55.4929C100.255 55.3648 100.195 55.2705 100.122 55.2031C100.049 55.1357 99.9488 55.0818 99.829 55.0413C99.7093 55.0009 99.5563 54.9739 99.3767 54.9672C98.9244 54.9672 98.6051 55.0885 98.4255 55.3379C98.2459 55.5872 98.1528 55.9714 98.1528 56.4903V56.7868C98.1528 57.299 98.2393 57.6765 98.4189 57.9123C98.5918 58.1482 98.9111 58.2628 99.3767 58.2628C99.7558 58.2628 100.022 58.1347 100.175 57.8854C100.328 57.636 100.401 57.2451 100.401 56.7195V56.7262Z" fill="white"/>
<path d="M106.454 54.4819H106.993V58.7682H106.427V55.4794L104.359 58.7682H103.82V54.4819H104.385V57.7506L106.454 54.4819Z" fill="white"/>
<path d="M113.219 54.4819V58.7682H112.653V55.0346H110.638V58.7682H110.072V54.4819H113.219Z" fill="white"/>
<path d="M117.855 56.4701V56.7262C117.855 57.4069 117.735 57.9258 117.489 58.2763C117.243 58.6267 116.85 58.8087 116.298 58.8087C115.746 58.8087 115.307 58.6402 115.028 58.3032V60.534H114.462V54.4819H115.028V54.9874C115.307 54.6033 115.733 54.4146 116.305 54.4146C116.611 54.4146 116.864 54.4617 117.07 54.5493C117.276 54.637 117.429 54.7717 117.542 54.9605C117.655 55.1424 117.735 55.3581 117.782 55.594C117.828 55.8366 117.848 56.1264 117.848 56.4768L117.855 56.4701ZM117.276 56.7262V56.4768C117.276 56.2409 117.263 56.0522 117.249 55.904C117.236 55.7557 117.21 55.6209 117.17 55.4929C117.13 55.3648 117.07 55.2705 116.997 55.2031C116.924 55.1357 116.824 55.0818 116.704 55.0413C116.584 55.0009 116.431 54.9739 116.252 54.9672C115.799 54.9672 115.48 55.0885 115.301 55.3379C115.121 55.5872 115.028 55.9714 115.028 56.4903V56.7868C115.028 57.299 115.114 57.6765 115.294 57.9123C115.467 58.1482 115.786 58.2628 116.252 58.2628C116.631 58.2628 116.897 58.1347 117.05 57.8854C117.203 57.636 117.276 57.2451 117.276 56.7195V56.7262Z" fill="white"/>
<path d="M118.573 56.7463V56.4969C118.573 55.1019 119.139 54.4077 120.27 54.4077C120.862 54.4077 121.294 54.5829 121.56 54.9334C121.833 55.2838 121.966 55.796 121.966 56.47V56.7261C121.966 57.3866 121.826 57.892 121.54 58.2559C121.254 58.6199 120.835 58.8018 120.263 58.8018C119.691 58.8018 119.272 58.6199 118.986 58.2559C118.7 57.892 118.56 57.3866 118.56 56.7396L118.573 56.7463ZM121.4 56.7261V56.4767C121.4 55.9578 121.314 55.5736 121.148 55.331C120.981 55.0884 120.689 54.9604 120.276 54.9604C119.864 54.9604 119.578 55.0884 119.405 55.3378C119.239 55.5871 119.152 55.9713 119.152 56.4835V56.7194C119.152 57.7437 119.525 58.2559 120.276 58.2559C121.028 58.2559 121.4 57.7437 121.4 56.7194V56.7261Z" fill="white"/>
<path d="M125.318 54.4819V55.0278H123.516V58.7682H122.95V54.4819H125.318Z" fill="white"/>
<path d="M129.489 56.4701V56.7262C129.489 57.4069 129.369 57.9258 129.123 58.2763C128.877 58.6267 128.484 58.8087 127.932 58.8087C127.38 58.8087 126.941 58.6402 126.662 58.3032V60.534H126.096V54.4819H126.662V54.9874C126.941 54.6033 127.367 54.4146 127.939 54.4146C128.245 54.4146 128.497 54.4617 128.704 54.5493C128.91 54.637 129.063 54.7717 129.176 54.9605C129.289 55.1424 129.369 55.3581 129.415 55.594C129.462 55.8366 129.482 56.1264 129.482 56.4768L129.489 56.4701ZM128.91 56.7262V56.4768C128.91 56.2409 128.897 56.0522 128.883 55.904C128.87 55.7557 128.843 55.6209 128.803 55.4929C128.764 55.3648 128.704 55.2705 128.63 55.2031C128.557 55.1357 128.458 55.0818 128.338 55.0413C128.218 55.0009 128.065 54.9739 127.885 54.9672C127.433 54.9672 127.114 55.0885 126.934 55.3379C126.755 55.5872 126.662 55.9714 126.662 56.4903V56.7868C126.662 57.299 126.748 57.6765 126.928 57.9123C127.101 58.1482 127.42 58.2628 127.885 58.2628C128.265 58.2628 128.531 58.1347 128.684 57.8854C128.837 57.636 128.91 57.2451 128.91 56.7195V56.7262Z" fill="white"/>
<path d="M133.373 55.668V58.7681H132.821V58.1953C132.688 58.4042 132.515 58.5592 132.316 58.6603C132.116 58.7614 131.844 58.8086 131.524 58.8086C130.653 58.8086 130.214 58.3705 130.214 57.5011C130.214 56.9822 130.427 56.5846 130.859 56.315C131.291 56.0454 131.943 55.8634 132.828 55.7758V55.7017C132.828 55.4254 132.755 55.2299 132.602 55.1086C132.449 54.9873 132.209 54.9334 131.87 54.9334C131.398 54.9334 131.072 55.1019 130.879 55.4321L130.274 55.2367C130.4 54.9806 130.606 54.7784 130.892 54.6301C131.185 54.4818 131.524 54.4077 131.923 54.4077C132.436 54.4077 132.808 54.5088 133.034 54.7177C133.26 54.9199 133.38 55.2367 133.38 55.668H133.373ZM132.821 56.962V56.3015C132.156 56.3689 131.651 56.4969 131.305 56.6924C130.959 56.8878 130.786 57.1574 130.786 57.5079C130.786 58.0201 131.059 58.2694 131.597 58.2694C132.036 58.2694 132.342 58.1549 132.535 57.9325C132.722 57.71 132.821 57.3798 132.821 56.962Z" fill="white"/>
<path d="M137.876 54.4819H138.661V58.7682H138.102V55.3176L136.832 58.7682H136.346L135.096 55.3109V58.7682H134.557V54.4819H135.362L136.613 57.9662L137.883 54.4819H137.876Z" fill="white"/>
<path d="M143.211 54.4819H143.996V58.7682H143.437V55.3176L142.167 58.7682H141.681L140.431 55.3109V58.7682H139.892V54.4819H140.697L141.947 57.9662L143.218 54.4819H143.211Z" fill="white"/>
<path d="M12.2657 14.483C11.9265 14.4695 11.5806 14.4561 11.2347 14.4561H0V26.9106L5.12846 21.7145L12.2657 14.483Z" fill="white"/>
<path d="M26.8728 19.2412L38.8059 0L22.2897 16.7341L11.8599 27.3016L2.24151 37.0468C0.904521 38.4015 0.904521 40.5918 2.24151 41.9464L5.46094 45.2083C6.79793 46.563 8.95973 46.563 10.2967 45.2083L22.7022 32.6392L22.8086 32.5314C26.1278 29.1684 31.5157 29.1684 34.8349 32.5314L34.9413 32.6392L38.7328 36.4807C37.0632 29.3167 32.7396 23.204 26.8728 19.2412Z" fill="#942BE6"/>
<path d="M31.2431 41.2928C29.9061 39.9382 27.7443 39.9382 26.4073 41.2928L14.0018 53.8619L13.8954 53.9698C10.5762 57.3328 5.18833 57.3328 1.86913 53.9698L1.7627 53.8619L0 52.076V79.0001L12.3389 64.5912C14.0883 64.5507 18.4718 64.3957 18.7578 64.3822L28.8085 55.1896L34.4691 49.4543C35.8061 48.0997 35.8061 45.9094 34.4691 44.5547L31.2497 41.2928H31.2431Z" fill="#D63131"/>
</g>
<defs>
<clipPath id="clip0_17_544">
<rect width="163" height="79" fill="white"/>
</clipPath>
</defs>
</svg>
